<svg id="SvgjsSvg1025" width="288" height="288" xmlns="http://www.w3.org/2000/svg" version="1.1" xmlns:xlink="http://www.w3.org/1999/xlink" xmlns:svgjs="http://svgjs.com/svgjs"><defs id="SvgjsDefs1026"></defs><g id="SvgjsG1027"><svg xmlns="http://www.w3.org/2000/svg" viewBox="0 0 32 32" width="288" height="288"><g fill="#aed0d6" class="color1C1C1C svgShape"><path d="M27 7H5a2 2 0 0 0-2 2v14h26V9a2 2 0 0 0-2-2zm1 15H4V10a2 2 0 0 1 2-2h20a2 2 0 0 1 2 2v12z" fill="#aed1d6" class="color000 svgShape"></path><path d="M31 24.065V7a2 2 0 0 0-2-2H3a2 2 0 0 0-2 2v17.065c-.57.147-1 .642-1 1.258v.354C0 26.408.592 27 1.323 27h29.354c.731 0 1.323-.592 1.323-1.323v-.354c0-.616-.43-1.11-1-1.258zM2 8a2 2 0 0 1 2-2h24a2 2 0 0 1 2 2v16H2V8zm29 17.583c0 .23-.193.417-.431.417H1.431A.424.424 0 0 1 1 25.583v-.167c0-.229.193-.416.431-.416h29.138c.238 0 .431.187.431.417v.166z" fill="#aed1d6" class="color000 svgShape"></path></g></svg></g></svg>